<svg width="97" height="104" viewBox="0 0 97 104" fill="none" xmlns="http://www.w3.org/2000/svg">
<path d="M19.2119 3.85938L12.1709 7.67813L12.1105 13.1828L12.0703 18.6875H9.89766H7.74512L3.8625 22.6078L0 26.5078V33.9219V41.3359L7.24219 48.6484L14.4844 55.9609L21.2236 52.5484L27.9629 49.1563H29.6326H31.2822L33.8975 54.4781L36.5127 59.8203L39.0273 62.4203L41.5219 65L38.5244 71.0938L35.5068 77.1875L38.8865 80.6L42.2461 83.9922V90.0859V96.1797L46.1287 100.1L49.9912 104H54.075H58.1387L65.2803 100.405L72.4219 96.7891V90.3906V83.9922L75.4395 80.9453L78.457 77.8984V66.5844V55.25H83.6271H88.8174L92.6799 51.35L96.5625 47.4297V39.1625V30.875H91.3924H86.2022L83.8484 33.2516L81.4746 35.6484L76.9482 31.0781L72.4219 26.5078V20.1094V13.7109L64.5762 9.75L56.7305 5.78907L53.7129 8.83594L50.6953 11.8828L46.4707 9.75L42.2461 7.61719V3.81875V3.8147e-06L34.2596 0.0203163L26.2529 0.0406288L19.2119 3.85938Z" fill="white"/>
<path d="M84.4922 76.5781V82.6719H87.5098H90.5274V76.5781V70.4844H87.5098H84.4922V76.5781Z" fill="white"/>
</svg>
