<svg width="92" height="104" viewBox="0 0 92 104" fill="none" xmlns="http://www.w3.org/2000/svg">
<path d="M31.3828 3.75782L24.2412 7.49532L24.1809 10.9078L24.1406 14.3203L22.3904 16.0875L20.6604 17.8547L15.2689 15.1125L9.85742 12.3906H4.92871H0V17.5297V22.6484L3.9832 26.6703L7.94629 30.6719H13.9814H20.0166L22.0887 32.7641L24.1406 34.8359V41.9047V48.9531H27.7617H31.3828L34.4004 55.0469L37.418 61.1406H41.9443H46.4707L44.0768 65.975L41.6828 70.8297L44.801 73.9781L47.9393 77.1469L44.9016 86.2875L41.884 95.4281L46.008 99.7141L50.132 104H55.2418H60.3516V99.7344V95.4688L63.1479 89.8219L65.9441 84.1953L69.183 80.9453L72.4219 77.6953V69.4281V61.1406H69.4043H66.3867V58.0938V55.0469H59.4865H52.5863L51.0977 53.5234L49.609 52L54.8193 46.6781L60.0498 41.3359L62.0615 37.2125L64.0732 33.1094L61.3574 30.3672L58.6416 27.625H55.9258H53.1898L51.7012 29.1484L50.2125 30.6719H48.6836H47.1547L46.4104 29.1484L45.666 27.625L46.4104 26.1016L47.1547 24.5781H53.7531H60.3516V19.5406V14.5234L56.8311 7.3125L53.3105 0.101566L45.9074 0.0609413L38.5244 3.8147e-06L31.3828 3.75782Z" fill="white"/>
<path d="M68.9617 3.9L63.3691 7.8V11.9234V16.0469L64.8779 19.0938L66.3867 22.1406V26.4063V30.6719H71.8787H77.3707L78.8594 27.625L80.348 24.5781H81.5752H82.7822L86.9465 20.3734C89.26 18.0578 91.1309 16.0672 91.1309 15.9859C91.1309 15.8844 89.4008 12.2484 87.2684 7.90156L83.426 1.12504e-06H78.9801L74.5342 0.0203136L68.9617 3.9Z" fill="white"/>
</svg>
