<svg width="104" height="91" viewBox="0 0 104 91" fill="none" xmlns="http://www.w3.org/2000/svg">
<path d="M36.7656 5.22031V10.4609L38.7359 12.4313L40.6859 14.3813L36.8062 16.3313L32.9062 18.2813H30.5297C28.2141 18.2609 27.8891 18.2203 21.7953 16.6766L15.4578 15.0922L8.18594 16.8797C4.18437 17.875 0.710937 18.7281 0.446875 18.7891L0 18.8906V23.7656V28.6406L3.14844 31.7078L6.29687 34.7953V39.6094V44.4234L3.14844 47.4297L0 50.4156L0.0203125 54.8031V59.2109L4.08281 63.1313L8.14531 67.0313H12.4516H16.7375L20.6578 63.1313L24.5781 59.2313V57.0375V54.8438H25.1875C25.7766 54.8438 25.8578 54.9859 28.2344 59.7188L30.6719 64.5938V68.8594V73.125H35.8922H41.1125L44.1797 70.0781L47.2469 67.0313H51.1469H55.0469V63.9844V60.9375H57.2203H59.3937L63.3141 57.0375L67.2344 53.1375V50.9438V48.75H69.4078H71.5812L76.1719 44.1797L80.7422 39.6094L77.0453 35.9125C73.3891 32.2563 73.3281 32.175 73.3281 31.3219V30.4688H76.375H79.4219V33.5156V36.5625H84.6422H89.8625L92.9297 33.5156L95.9969 30.4688H99.9984H104L103.959 24.7406L103.898 19.0328L93.5391 15.6203L83.1797 12.2078L78.2641 12.1875H73.3281V9.14063V6.09375H66.3609H59.4141L56.3672 3.04688L53.3203 2.68221e-06H45.0531H36.7656V5.22031Z" fill="white"/>
<path d="M15.4375 9.14063V12.1875H21.5312H27.625V9.14063V6.09375H21.5312H15.4375V9.14063Z" fill="white"/>
<path d="M77.6953 52.2031L75.0547 54.8438H72.6781H70.2812V57.8906V60.9375H73.9781H77.675L81.0875 57.5453C82.9562 55.6766 84.5 54.0516 84.5 53.9297C84.5 53.8078 83.5656 52.7922 82.4078 51.6344L80.3359 49.5625L77.6953 52.2031Z" fill="white"/>
<path d="M67.2344 67.0313V70.0781H70.2812H73.3281V67.0313V63.9844H70.2812H67.2344V67.0313Z" fill="white"/>
<path d="M55.0469 74.6484V79.2188H60.9375C64.1875 79.2188 66.8281 79.1984 66.8281 79.1578C66.8281 79.1375 66.0156 77.1063 65.0406 74.6484L63.2531 70.1797L59.15 70.1188L55.0469 70.0781V74.6484Z" fill="white"/>
<path d="M70.2812 76.1719V79.2188H72.6578H75.0547L77.6344 81.7984L80.2344 84.3984L82.4078 82.2047L84.6016 80.0313L81.1484 76.5781L77.6953 73.125H73.9984H70.2812V76.1719Z" fill="white"/>
<path d="M42.8594 80.1328V84.0938L49.7859 87.5672C53.6047 89.4563 56.7328 91 56.7734 90.9594C56.9562 90.7563 59.3125 85.9016 59.3125 85.7188C59.3125 85.6172 56.9766 84.3578 54.1328 82.9359L48.9531 80.3359V78.2641V76.1719H45.9062H42.8594V80.1328Z" fill="white"/>
<path d="M61.1406 85.3125V88.3594H64.1875H67.2344V85.3125V82.2656H64.1875H61.1406V85.3125Z" fill="white"/>
</svg>
