<svg width="103" height="98" viewBox="0 0 103 98" fill="none" xmlns="http://www.w3.org/2000/svg">
<path d="M40.5361 6.16504L37.5186 12.2002H36.1104H34.7021L31.0408 8.53887L27.3594 4.85742L22.833 9.38379L18.3066 13.9102V19.0803V24.2705H16.134H13.9814L10.9639 27.2881L7.94629 30.3057H3.9832H0V41.2092V52.1328L3.11816 58.168L6.23633 64.2031V68.3674V72.5518H11.4266H16.5967L19.6143 69.5342L22.6318 66.5166H25.6494H28.667L31.6846 63.499L34.7021 60.4814H42.1857H49.6895L52.707 66.5166L55.7246 72.5518H59.0037H62.2627L65.2803 75.5693L68.2979 78.5869H72.623H76.9482L79.9658 75.5693L82.9834 72.5518H86.001H89.0186L92.9012 68.6691L96.7637 64.8066V61.7488V58.7111L99.8818 55.7137L103 52.6961V48.6727V44.6291L99.3186 37.5277L95.6572 30.4062L92.3178 30.3459L88.9984 30.3057L87.027 28.3141L85.0354 26.3225L86.4234 20.7701L87.8115 15.2178L85.9205 7.67383L84.0496 0.129881H78.3363H72.623V7.03008V13.9102L70.8125 15.7207L69.002 17.5312L64.7773 15.4189L60.5527 13.3066V6.72832V0.129881H52.0432H43.5537L40.5361 6.16504Z" fill="white"/>
<path d="M75.8418 83.1133L71.3154 87.6396L76.5057 92.8098L81.6758 98L86.2021 93.4736L90.7285 88.9473V83.7771V78.5869H85.5383H80.3682L75.8418 83.1133Z" fill="white"/>
</svg>
