<svg width="103" height="91" viewBox="0 0 103 91" fill="none" xmlns="http://www.w3.org/2000/svg">
<path d="M66.5879 7.61426V14.7559L64.1336 19.6846C61.8 24.3316 61.6391 24.6133 61.116 24.6133H60.5527V18.5781V12.543H55.3625H50.1924L47.1748 15.5605L44.1572 18.5781H39.1078H34.0383L32.107 26.3232C31.0408 30.5881 30.1758 34.2293 30.1758 34.4104C30.1758 34.6115 32.2479 36.8646 34.8027 39.3994L39.4297 44.0264L42.749 40.707L46.0684 37.3877L47.5369 38.132L49.0055 38.8562L49.5486 40.6668C49.8504 41.6727 50.0918 42.759 50.0918 43.0607C50.0717 43.6643 49.1865 48.1102 49.0457 48.251C49.0055 48.2912 46.8328 48.0096 44.2176 47.6273L39.4699 46.9031L32.6703 47.9291L25.8506 48.9551L22.0887 52.717L18.3066 56.499V59.5166V62.5543L16.7979 64.043L15.2891 65.5518L12.2916 62.5543L9.31426 59.577L4.66719 64.0832L0 68.5693V75.9121V83.2549L4.00332 87.1375L8.00664 91H13.1566H18.3066V87.4191V83.8584L23.5773 81.2432C28.848 78.6279 28.8682 78.6279 30.7189 76.8375L32.5697 75.0471L35.0441 80.016L37.5186 84.9648H42.9904H48.4824V78.9297V72.8945H49.0457C49.5688 72.8945 49.7297 73.1762 52.0633 77.8232L54.5176 82.752V86.876V91H59.7078H64.8779L69.1025 86.7754L73.3271 82.5508L70.3096 76.5156L67.292 70.4805L69.1025 68.6699L70.9131 66.8594H73.9307H76.9482L79.302 64.5057L81.6758 62.1318L84.0496 64.5057L86.4033 66.8594H94.7117H103V61.6691V56.4789L99.8818 53.5016L96.7637 50.5242V47.4865V44.4287L94.8123 42.4773L92.8609 40.5059L97.9305 38.0516L103 35.5771V30.1053V24.6133H96.301H89.6221L87.1477 19.6846L84.6934 14.7559V11.4768V8.21777L80.8107 4.33515L76.9482 0.472655H71.758H66.5879V7.61426Z" fill="white"/>
<path d="M12.2111 23.366L6.23633 29.3408V33.666V37.9912L10.1189 41.8738L13.9814 45.7363H19.1717H24.3418V34.5109V23.3057L21.3645 20.3283C19.735 18.6988 18.367 17.3711 18.3066 17.3711C18.2463 17.3711 15.5104 20.0668 12.2111 23.366Z" fill="white"/>
</svg>
